<svg width="2243" height="386" viewBox="0 0 2243 386" fill="none" xmlns="http://www.w3.org/2000/svg">
<rect x="274.154" y="96.9717" width="205.615" height="34.2692" transform="rotate(-180 274.154 96.9717)" fill="#C2005D"/>
<rect x="274.154" y="247.756" width="205.615" height="34.2692" transform="rotate(-180 274.154 247.756)" fill="#C2005D"/>
<rect x="205.615" y="172.364" width="205.615" height="34.2692" transform="rotate(-180 205.615 172.364)" fill="#0069CA"/>
<rect x="205.615" y="323.149" width="205.615" height="34.2692" transform="rotate(-180 205.615 323.149)" fill="#0069CA"/>
<path d="M522.592 13.3161H394.154V14.8511C396.689 26.0957 404.899 56.7952 404.899 87.5304V307.532C404.899 338.267 396.689 368.966 394.154 380.211V381.746H522.592C615.191 381.746 696.045 309.067 696.045 195.479C696.045 86.4952 615.191 13.3161 522.592 13.3161ZM508.778 362.827H461.193V32.2356H508.778C587.561 32.2356 632.075 104.415 632.611 195.479C633.111 289.647 587.561 362.827 508.778 362.827Z" fill="black"/>
<path d="M850.573 385.851C919.647 385.851 977.476 337.232 977.476 253.808C977.476 170.919 919.647 123.834 850.573 123.834C781.499 123.834 724.705 170.919 724.705 253.808C724.705 337.232 781.499 385.851 850.573 385.851ZM850.573 367.931C807.094 367.931 784.069 313.672 784.069 253.808C784.069 193.944 807.094 141.754 850.573 141.754C894.052 141.754 918.112 193.944 918.112 253.808C918.112 314.207 894.052 367.931 850.573 367.931Z" fill="black"/>
<path d="M1109.5 385.851C1159.12 385.851 1203.63 360.756 1203.63 307.032C1203.63 267.123 1179.07 245.133 1124.31 226.714C1082.87 212.899 1055.77 204.688 1055.77 178.594C1055.77 154.534 1078.26 142.254 1102.82 142.254C1137.13 142.254 1166.79 169.884 1192.89 201.119H1194.96V144.824C1164.22 130.51 1131.99 123.834 1106.93 123.834C1051.67 123.834 1010.22 150.964 1010.22 197.549C1010.22 238.458 1042.96 257.913 1094.15 275.297C1136.09 290.147 1160.65 299.857 1160.65 326.987C1160.65 354.116 1136.59 366.896 1113.07 366.896C1074.69 366.896 1041.42 331.592 1015.33 301.927H1013.79V361.791C1050.63 378.676 1083.4 385.851 1109.5 385.851Z" fill="black"/>
<path d="M1339.75 385.851C1389.37 385.851 1433.88 360.756 1433.88 307.032C1433.88 267.123 1409.32 245.133 1354.56 226.714C1313.12 212.899 1286.03 204.688 1286.03 178.594C1286.03 154.534 1308.52 142.254 1333.08 142.254C1367.38 142.254 1397.04 169.884 1423.14 201.119H1425.21V144.824C1394.47 130.51 1362.24 123.834 1337.18 123.834C1281.92 123.834 1240.48 150.964 1240.48 197.549C1240.48 238.458 1273.21 257.913 1324.4 275.297C1366.35 290.147 1390.9 299.857 1390.9 326.987C1390.9 354.116 1366.84 366.896 1343.32 366.896C1304.95 366.896 1271.68 331.592 1245.58 301.927H1244.05V361.791C1280.89 378.676 1313.66 385.851 1339.75 385.851Z" fill="black"/>
<path d="M1510.65 72.1439C1530.6 72.1439 1547.49 56.2944 1547.49 36.3397C1547.49 15.8852 1530.6 0 1510.65 0C1490.69 0 1473.81 15.8852 1473.81 36.3397C1473.81 56.2944 1491.19 72.1439 1510.65 72.1439ZM1475.84 381.745H1550.06V380.21C1547.99 368.965 1539.31 338.266 1539.31 307.531V126.903H1475.84V128.438C1478.41 139.719 1487.09 170.418 1487.09 201.118L1486.59 307.531C1486.59 338.266 1478.41 368.965 1475.84 380.21V381.745Z" fill="black"/>
<path d="M1729.65 349.512C1674.4 349.512 1646.23 306.532 1643.7 246.668H1816.65C1816.65 177.559 1778.27 123.834 1706.63 123.834C1637.56 123.834 1585.87 174.489 1585.87 254.343C1585.87 338.267 1643.16 385.851 1707.13 385.851C1760.35 385.851 1799.23 352.582 1815.61 313.672L1814.08 312.137C1784.41 339.267 1757.78 349.512 1729.65 349.512ZM1706.09 141.754C1743.47 141.754 1760.35 177.559 1761.89 224.643L1643.7 233.353C1645.23 184.234 1664.15 141.754 1706.09 141.754Z" fill="black"/>
<path d="M1917.42 170.421V126.906H1853.45V128.441C1856.02 139.721 1864.2 170.421 1864.2 201.12V307.533C1864.2 338.268 1856.02 368.968 1853.45 380.213V381.748H1928.17V380.213C1925.63 368.968 1917.42 338.268 1917.42 307.533V183.7C1948.66 153.536 1987.03 164.78 2010.56 185.77H2012.59L2020.8 126.406C1974.75 112.092 1937.38 135.116 1917.42 170.421Z" fill="black"/>
<path d="M2148.73 385.851C2198.34 385.851 2242.86 360.756 2242.86 307.032C2242.86 267.123 2218.3 245.133 2163.54 226.714C2122.1 212.899 2095 204.688 2095 178.594C2095 154.534 2117.49 142.254 2142.05 142.254C2176.35 142.254 2206.02 169.884 2232.11 201.119H2234.18V144.824C2203.45 130.51 2171.21 123.834 2146.16 123.834C2090.9 123.834 2049.45 150.964 2049.45 197.549C2049.45 238.458 2082.19 257.913 2133.38 275.297C2175.32 290.147 2199.88 299.857 2199.88 326.987C2199.88 354.116 2175.82 366.896 2152.3 366.896C2113.92 366.896 2080.65 331.592 2054.56 301.927H2053.02V361.791C2089.86 378.676 2122.63 385.851 2148.73 385.851Z" fill="black"/>
</svg>
